PathFileType	4	(X/Y/Z)	C:/Users/beibeiliu/ov580/test_trc/User1\sequence.17_training_dense_right.trc
DataRate	CameraRate	NumFrames	NumMarkers	Units	OrigDataRate	OrigDataStartFrame	OrigNumFrames
120	120	18	19	mm	120	33	64
Frame#	Time	ThumbCMC			ThumbMCP			ThumbIP			ThumbTip			IndexMCP			IndexPIP			IndexTip			MiddleMCP			MiddlePIP			MiddleTip			RingMCP			RingPIP			RingTip			PinkyMCP			PinkyPIP			PinkyTip			BackHand1			BackHand2			BackHand3	
		X0	Y0	Z0	X1	Y1	Z1	X2	Y2	Z2	X3	Y3	Z3	X4	Y4	Z4	X5	Y5	Z5	X6	Y6	Z6	X7	Y7	Z7	X8	Y8	Z8	X9	Y9	Z9	X10	Y10	Z10	X11	Y11	Z11	X12	Y12	Z12	X13	Y13	Z13	X14	Y14	Z14	X15	Y15	Z15	X16	Y16	Z16	X17	Y17	Z17	X18	Y18	Z18	
32	0.266667	169.765	52.624	88.0282	154.495	54.9542	48.5592	151.084	52.1978	20.4914	145.505	39.7634	-2.46052	208.062	32.5337	14.2266	186.603	30.9232	-15.5144	157.951	27.5383	-17.1659	218.505	6.88085	12.9884	207.322	6.51088	-21.7999	176.716	2.00635	-40.2957	214.117	-15.246	19.0979	207.108	-16.6899	-12.92	180.507	-17.7744	-31.4983	199.105	-33.9819	36.8036	196.911	-40.7754	10.6123	184.498	-30.8958	-16.8437	207.059	-11.732	79.8655	197.809	-11.1169	110.425	206.26	23.0237	89.5523	
33	0.275	150.184	47.4696	92.1613	132.373	48.0303	58.5323	131.074	47.0488	28.9941	133.052	39.5501	0.170743	189.103	64.4983	16.9886	176.484	54.2169	-9.04392	151.843	33.0708	-13.987	214.765	41.9285	17.6878	206.092	43.1177	-17.3106	181.836	30.8933	-38.1916	222.796	21.552	17.614	217.969	20.2393	-12.3665	198.334	9.79066	-30.7	219.308	-4.52228	32.4232	220.225	-6.4461	7.98232	208.53	-3.98093	-21.4571	213.883	15.4901	81.0729	204.89	8.96152	109.411	190.909	43.7754	97.4119	
34	0.283333	134.327	31.4145	93.8111	116.438	27.1996	59.3559	117.837	26.5208	34.8545	118.59	23.5722	3.71454	159.096	70.1075	24.9706	145.642	58.7805	-5.76634	137.547	30.2473	-10.775	185.102	70.9529	19.8897	180.781	66.7597	-11.0488	165.002	41.0615	-35.1224	205.678	54.2586	24.4007	204.961	53.4087	-5.93003	188.398	37.338	-31.3947	218.517	26.2771	34.2001	221.555	25.7875	9.08323	211.13	27.2648	-17.1077	203.291	33.7163	83.3196	198.764	22.1685	113.431	171.082	48.8537	98.7552	
35	0.291667	123.947	13.3491	100.355	107.35	6.30848	62.5078	103.471	5.1977	36.5944	110.108	3.08758	11.3509	127.844	61.3513	25.79	127.819	46.6847	-0.584516	121.952	15.2003	-6.45953	159.045	68.3684	20.1242	153.762	61.2557	-11.4996	148.883	32.4225	-32.224	185.505	57.492	26.563	178.15	57.7974	-7.9416	172.931	35.317	-30.6949	204.015	37.6996	33.3547	205.574	37.7475	13.0339	197.039	32.7297	-15.8957	184.484	42.4071	84.9823	188.619	26.9984	116.624	155.717	43.4583	101.838	
36	0.3	111.746	11.5417	103.515	95.0492	-2.48202	74.5916	88.399	-2.53113	42.0835	89.0315	-9.85737	19.5991	117.993	46.5325	26.1568	107.776	30.576	0.340948	104.653	-2.24896	0.765065	138.889	50.0667	17.6426	133.317	38.3981	-11.4324	119.622	6.92656	-29.0625	165.03	40.0629	22.7292	156.295	33.5053	-11.3039	145.103	10.323	-27.4937	186.217	18.7421	34.2901	182.887	17.6848	3.8382	169.966	14.3528	-14.7665	171.822	30.6229	81.2191	176.562	25.2331	110.79	144.273	37.0219	103.725	
37	0.308333	104.014	26.743	110.326	76.1332	19.0909	83.3919	66.9121	13.7055	51.5207	62.7022	1.45818	30.9688	111.565	35.8062	24.0455	95.9023	18.5069	1.83429	69.6397	-2.33165	9.53296	130.319	24.3708	11.6114	113.778	8.72935	-12.5534	86.9274	-15.8221	-18.5851	147.382	8.81451	18.1378	128.417	-1.03438	-11.2359	106.942	-16.5562	-18.862	157.604	-14.8343	32.1428	147.043	-17.9248	7.38349	127.154	-18.9865	-10.7592	163.078	11.9159	77.7732	170.866	10.21	105.921	142.268	36.5419	92.3481	
38	0.316667	119.16	51.2401	101.024	89.8066	55.1916	75.6641	75.0069	48.7476	47.5261	60.2526	36.0492	32.8882	117.241	28.8956	12.664	90.9282	22.892	-2.63991	60.6753	19.6443	12.0828	126.576	2.73146	10.3121	101.432	0.312389	-11.2864	63.7051	-3.52467	-13.6434	129.649	-14.8678	17.1902	111.64	-22.6165	-4.65894	80.9698	-22.0667	-11.7312	127.889	-35.1936	43.0166	117.51	-42.3142	22.4724	99.6829	-37.731	1.37884	150.779	-5.79537	77.4941	159.952	-1.56771	105.443	153.94	28.3984	84.4223	
39	0.325	150.694	56.197	88.4932	126.771	62.3029	57.3215	112.472	57.358	33.9738	93.9614	52.4921	19.0663	147.932	21.2049	10.5155	121.927	22.1249	-11.163	90.4592	33.7257	-1.55617	144.827	-7.76804	5.614	118.491	-7.68139	-16.9491	84.3792	2.94526	-20.1877	136.714	-31.0501	19.3109	118.681	-30.5355	-5.50643	90.5219	-19.7784	-14.7905	126.482	-40.0522	45.42	112.854	-49.8243	25.1683	97.0334	-45.4974	2.16528	155.662	-18.9483	79.0802	161.89	-12.7275	111.795	173.429	16.2126	81.8385	
40	0.333333	179.359	49.4561	81.8725	159.737	57.4895	51.6456	149.789	55.7529	24.5462	136.718	48.6366	3.99058	187.102	10.8822	8.37561	162.079	11.9957	-13.7771	130.487	29.6284	-10.0442	180.696	-21.1017	9.48709	164.712	-16.9101	-18.3466	131.856	-2.48374	-32.2177	167.635	-38.1717	23.775	155.315	-37.9208	-7.9039	131.093	-27.7907	-22.2513	149.177	-48.0756	45.4919	140.039	-55.9414	21.8133	129.783	-52.4633	-3.24686	178.074	-21.9582	79.6451	179.212	-16.4501	112.992	194.435	7.37694	86.6871	
41	0.341667	191.54	52.4728	84.1608	175.86	62.0931	51.1839	172.749	54.8342	21.1579	163.222	49.6492	-3.80404	217.793	21.4245	10.4554	195.838	20.322	-14.7858	166.932	31.5702	-18.157	217.971	-9.7494	7.53807	202.477	-10.916	-20.5709	171.025	-0.251477	-37.7601	205.068	-30.1106	17.9032	198.624	-28.8554	-10.318	171.146	-20.1688	-30.2363	184.511	-42.4477	41.2208	182.532	-46.3373	11.4914	174.978	-45.2087	-11.19	203.191	-17.3801	82.2287	196.143	-11.572	109.373	214.793	18.5276	90.4873	
42	0.35	180.245	61.5533	88.1599	163.626	66.5698	55.4901	163.988	65.2404	23.2611	160.285	58.5004	-2.80272	218.51	52.3372	12.8192	202.635	47.8575	-10.2561	171.395	44.506	-16.7582	233.381	26.4095	9.4567	223.286	25.012	-18.0513	192.485	24.6708	-39.5577	229.491	8.36192	18.1717	223.456	6.80306	-14.0493	202.275	8.9567	-32.1541	216.838	-18.9325	34.6228	218.52	-20.9295	9.67236	211.555	-15.1564	-18.605	220.62	6.2729	81.2977	211.431	3.39925	108.51	216.095	41.3512	91.1278	
43	0.358333	147.844	53.7024	93.7204	135.613	50.5238	59.9188	134.43	53.3689	31.1078	135.609	49.4327	6.26996	184.401	82.6084	25.5418	168.578	74.3519	-6.97036	151.173	51.3184	-12.9661	209.541	71.9407	20.6126	200.027	72.6101	-13.5108	180.227	55.1046	-35.0582	223.247	52.7709	23.2854	216.456	53.2742	-12.1563	202.136	39.7326	-31.4379	230.616	21.2157	31.8252	229.831	24.2388	8.16095	224.062	25.0603	-18.1736	216.081	37.3478	83.1417	212.058	26.7038	110.117	192.352	55.2924	99.3864	
44	0.366667	131.807	32.5944	94.0159	116.928	25.2837	64.2618	113.496	28.1523	35.5009	115.344	26.2553	8.4694	142.424	80.3675	26.3692	135.33	68.5493	-0.524821	133.169	33.6008	-7.66643	171.183	82.2375	22.588	166.182	77.2543	-10.5894	153.653	52.6632	-32.4294	195.133	70.3498	23.3363	189.245	70.5443	-8.83959	181.861	52.8402	-29.0921	212.491	44.4132	34.8737	217.962	45.1578	9.31477	210.88	48.4516	-15.0416	197.291	52.7315	82.5462	197.176	33.4687	113.93	164.136	54.3507	103.109	
45	0.375	118.342	17.3185	98.8999	102.172	7.348	66.9557	95.2553	7.79139	38.9847	96.496	3.74733	11.3899	122.784	62.3115	31.0518	112.412	48.3276	1.34422	111.857	12.2265	-1.70081	145.857	68.4734	22.8083	138.378	63.0129	-8.09785	132.712	32.9134	-31.2013	171.156	59.1466	26.9361	165.982	58.0817	-8.9125	159.036	39.7032	-30.1044	198.466	38.0956	33.149	197.851	40.0102	12.9153	198.463	39.2848	-16.4459	176.757	44.5546	83.4381	186.575	31.6468	115.1	144.665	47.2699	101.742	
46	0.383333	106.909	21.2978	104.142	91.0978	9.00672	75.4073	81.6518	6.07265	44.5248	80.4568	-1.98385	25.2174	114.024	51.2841	27.9508	105.681	33.4429	0.987593	94.6003	-1.66528	5.38985	141.515	48.3755	17.5191	128.431	38.764	-12.9474	115.106	10.0727	-28.7392	162.224	37.1483	21.968	152.878	31.1508	-12.0134	139.595	10.9935	-29.2868	185.326	12.8036	29.7106	182.382	9.53193	4.63938	171.785	9.94926	-16.8723	174.719	29.6654	75.3486	180.221	24.3033	108.485	145.927	42.8759	98.808	
47	0.391667	111.487	39.4204	105.433	81.6355	34.5104	78.389	70.1076	28.6492	52.7067	66.216	15.3923	30.8063	117.611	44.4461	21.6876	98.2516	24.0353	-0.393918	71.613	8.80288	9.49264	138.908	22.7328	9.20976	116.494	13.6213	-16.6301	87.1042	-3.7752	-24.0484	151.085	6.5127	18.1326	134.613	-3.58309	-13.2717	111.634	-14.0367	-22.564	157.606	-18.4173	32.6961	149.328	-20.2063	10.9549	138.087	-21.698	-11.8194	168.253	9.08394	75.2232	172.207	10.6903	109.301	150.888	39.7448	94.7274	
48	0.4	125.137	55.4546	95.4224	94.9329	60.7266	72.893	78.9921	53.5427	46.1765	64.3075	43.1119	32.1979	122.067	30.8038	9.7086	97.7552	27.7447	-3.91697	67.1078	22.5589	9.84036	130.748	2.80838	7.50441	106.604	2.14841	-14.618	70.7642	-0.126785	-18.6225	134.308	-13.5788	18.3474	115.409	-20.846	-5.69886	81.0312	-23.2691	-14.2111	128.715	-36.3254	43.2311	118.355	-45.3558	21.6307	104.725	-41.3152	-0.560021	154.887	-8.05738	77.3265	163.857	-4.59715	105.904	158.635	30.0477	85.4226	
49	0.408333	147.09	52.9614	85.296	121.113	65.5198	57.7824	104.154	65.7769	38.4684	85.4715	55.9526	20.8953	138.146	20.9154	8.97103	107.279	24.0637	-7.89583	79.4979	35.575	5.05635	138.179	-4.61085	9.67387	108.305	-6.89363	-15.5922	78.9051	4.96229	-19.1128	129.312	-28.0925	21.4072	111.214	-26.738	-3.72723	79.0721	-18.4881	-11.9744	119.444	-37.787	48.4468	104.053	-48.6399	29.5111	93.2858	-46.9804	6.43401	152.52	-16.8959	76.8192	160.054	-8.93058	107.19	170.006	17.6484	82.9226	
